C:\Users\r0593348\3dpredictsim\Results\Batchsim_tmt_linear_v2\Pog_s1_tmt_aCst_d00_k500_ig24_pas_GRF.mot
nRows=17
nColumns=19

name C:\Users\r0593348\3dpredictsim\Results\Batchsim_tmt_linear_v2\Pog_s1_tmt_aCst_d00_k500_ig24_pas_GRF.mot
datacolumns 19
datarows 17
range 0.0000000000 0.1760266142
endheader
time 	ground_force_vx	ground_force_vy	ground_force_vz	ground_force_px	ground_force_py	ground_force_pz	1_ground_force_vx	1_ground_force_vy	1_ground_force_vz	1_ground_force_px	1_ground_force_py	1_ground_force_pz	ground_torque_x	ground_torque_y	ground_torque_z	1_ground_torque_x	1_ground_torque_y	1_ground_torque_z
        0.0000000000	      -72.1200394989	       58.5604243822	       21.7840577015	        0.1657337867	        0.0000000000	        0.0444375160	       99.8815507790	      423.0761722045	        1.6064377555	       -0.3525097016	        0.0000000000	       -0.0435766862	        0.0000000000	        0.0000000000	        0.0000000000	        0.0000000000	        0.0000000000	        0.0000000000	
        0.0110016634	     -129.4131735894	      139.8073464084	       58.5871797968	        0.1730314773	        0.0000000000	        0.0426192195	       61.6926633233	      311.1720893341	       -4.9348868767	       -0.3335830043	        0.0000000000	       -0.0399658234	        0.0000000000	        0.0000000000	        0.0000000000	        0.0000000000	        0.0000000000	        0.0000000000	
        0.0220033268	      -68.1737193650	      301.4613976712	       23.3424657259	        0.1791038359	        0.0000000000	        0.0406854838	       24.3852220747	      206.1439801849	       -8.9183845992	       -0.3028070794	        0.0000000000	       -0.0329946664	        0.0000000000	        0.0000000000	        0.0000000000	        0.0000000000	        0.0000000000	        0.0000000000	
        0.0330049902	      -72.5359524095	      508.6247059489	        0.2589611114	        0.1843760667	        0.0000000000	        0.0412704097	        2.3804349036	      147.5465952472	      -11.1539198589	       -0.2778327769	        0.0000000000	       -0.0249896893	        0.0000000000	        0.0000000000	        0.0000000000	        0.0000000000	        0.0000000000	        0.0000000000	
        0.0440066535	     -114.4727249418	      775.5931378943	      -13.3386576313	        0.1946772552	        0.0000000000	        0.0441584442	       -1.1641252600	      117.7113098753	      -10.6767140400	       -0.2782560498	        0.0000000000	       -0.0253472272	        0.0000000000	        0.0000000000	        0.0000000000	        0.0000000000	        0.0000000000	        0.0000000000	
        0.0550083169	     -140.2787830207	      945.1400976106	      -19.4823940596	        0.2016298422	        0.0000000000	        0.0460351828	       -3.9808498597	       78.0065432951	      -10.0311027758	       -0.2777613985	        0.0000000000	       -0.0254518536	        0.0000000000	        0.0000000000	        0.0000000000	        0.0000000000	        0.0000000000	        0.0000000000	
        0.0660099803	     -144.3211929569	      981.2293562397	      -20.0029420259	        0.2063197014	        0.0000000000	        0.0471930199	       -8.5473143219	       32.9793174859	       -6.2890686865	       -0.2779846298	        0.0000000000	       -0.0255049566	        0.0000000000	        0.0000000000	        0.0000000000	        0.0000000000	        0.0000000000	        0.0000000000	
        0.0770116437	     -133.6129502485	      940.5972104676	      -20.1651111301	        0.2100824769	        0.0000000000	        0.0479784419	        0.1295049264	       -0.1308270775	        0.0092115837	        0.0000000000	        0.0000000000	        0.0000000000	        0.0000000000	        0.0000000000	        0.0000000000	        0.0000000000	        0.0000000000	        0.0000000000	
        0.0880133071	     -116.1307090747	      875.9611256334	      -19.2086912689	        0.2138188980	        0.0000000000	        0.0485789201	        0.0001535681	       -0.0001276241	       -0.0000040851	        0.0000000000	        0.0000000000	        0.0000000000	        0.0000000000	        0.0000000000	        0.0000000000	        0.0000000000	        0.0000000000	        0.0000000000	
        0.0990149705	     -101.6953358085	      819.9035157897	      -18.2833223831	        0.2182062052	        0.0000000000	        0.0492938076	        0.0000903092	       -0.0000657196	       -0.0000040603	        0.0000000000	        0.0000000000	        0.0000000000	        0.0000000000	        0.0000000000	        0.0000000000	        0.0000000000	        0.0000000000	        0.0000000000	
        0.1100166339	      -93.3528828043	      782.3985827092	      -17.9630397151	        0.2238508247	        0.0000000000	        0.0497033440	        0.0009219711	       -0.0006015963	       -0.0000490556	        0.0000000000	        0.0000000000	        0.0000000000	        0.0000000000	        0.0000000000	        0.0000000000	        0.0000000000	        0.0000000000	        0.0000000000	
        0.1210182973	      -84.3296288205	      746.2972117340	      -17.4727248675	        0.2296258170	        0.0000000000	        0.0498351807	        0.0075545757	       -0.0045157135	       -0.0004307404	        0.0000000000	        0.0000000000	        0.0000000000	        0.0000000000	        0.0000000000	        0.0000000000	        0.0000000000	        0.0000000000	        0.0000000000	
        0.1320199606	      -75.1702043084	      710.0355363769	      -17.3178301022	        0.2351189391	        0.0000000000	        0.0498695320	       -0.0521695415	        0.0290186530	        0.0030857009	        0.0000000000	        0.0000000000	        0.0000000000	        0.0000000000	        0.0000000000	        0.0000000000	        0.0000000000	        0.0000000000	        0.0000000000	
        0.1430216240	      -67.0039718937	      679.0930801740	      -17.0550738420	        0.2404838859	        0.0000000000	        0.0497742899	       -0.0359696552	        0.0188230760	        0.0021766243	        0.0000000000	        0.0000000000	        0.0000000000	        0.0000000000	        0.0000000000	        0.0000000000	        0.0000000000	        0.0000000000	        0.0000000000	
        0.1540232874	      -58.9153040468	      654.4835551306	      -17.0438580733	        0.2456845349	        0.0000000000	        0.0496523011	       -0.0249443450	        0.0123820849	        0.0015297199	        0.0000000000	        0.0000000000	        0.0000000000	        0.0000000000	        0.0000000000	        0.0000000000	        0.0000000000	        0.0000000000	        0.0000000000	
        0.1650249508	      -52.4094067498	      635.6132465508	      -17.3964711435	        0.2506920328	        0.0000000000	        0.0495161927	       -0.0216951243	        0.0102818999	        0.0013404260	        0.0000000000	        0.0000000000	        0.0000000000	        0.0000000000	        0.0000000000	        0.0000000000	        0.0000000000	        0.0000000000	        0.0000000000	
        0.1760266142	      -47.3442003748	      621.8537776448	      -17.9897979842	        0.2554233098	        0.0000000000	        0.0493540954	       -0.0245221961	        0.0111570816	        0.0015274954	        0.0000000000	        0.0000000000	        0.0000000000	        0.0000000000	        0.0000000000	        0.0000000000	        0.0000000000	        0.0000000000	        0.0000000000	
